<svg id="my-svg" width="523px" xmlns="http://www.w3.org/2000/svg" xmlns:xlink="http://www.w3.org/1999/xlink" class="classDiagram" style="max-width: 833.332px; background-color: transparent;" viewBox="0 0 833.33203125 668" role="graphics-document document" aria-roledescription="class"><style>#my-svg{font-family:"trebuchet ms",verdana,arial,sans-serif;font-size:16px;fill:#333;}@keyframes edge-animation-frame{from{stroke-dashoffset:0;}}@keyframes dash{to{stroke-dashoffset:0;}}#my-svg .edge-animation-slow{stroke-dasharray:9,5!important;stroke-dashoffset:900;animation:dash 50s linear infinite;stroke-linecap:round;}#my-svg .edge-animation-fast{stroke-dasharray:9,5!important;stroke-dashoffset:900;animation:dash 20s linear infinite;stroke-linecap:round;}#my-svg .error-icon{fill:#552222;}#my-svg .error-text{fill:#552222;stroke:#552222;}#my-svg .edge-thickness-normal{stroke-width:1px;}#my-svg .edge-thickness-thick{stroke-width:3.5px;}#my-svg .edge-pattern-solid{stroke-dasharray:0;}#my-svg .edge-thickness-invisible{stroke-width:0;fill:none;}#my-svg .edge-pattern-dashed{stroke-dasharray:3;}#my-svg .edge-pattern-dotted{stroke-dasharray:2;}#my-svg .marker{fill:#333333;stroke:#333333;}#my-svg .marker.cross{stroke:#333333;}#my-svg svg{font-family:"trebuchet ms",verdana,arial,sans-serif;font-size:16px;}#my-svg p{margin:0;}#my-svg g.classGroup text{fill:#9370DB;stroke:none;font-family:"trebuchet ms",verdana,arial,sans-serif;font-size:10px;}#my-svg g.classGroup text .title{font-weight:bolder;}#my-svg .cluster-label text{fill:#333;}#my-svg .cluster-label span{color:#333;}#my-svg .cluster-label span p{background-color:transparent;}#my-svg .cluster rect{fill:#ffffde;stroke:#aaaa33;stroke-width:1px;}#my-svg .cluster text{fill:#333;}#my-svg .cluster span{color:#333;}#my-svg .nodeLabel,#my-svg .edgeLabel{color:#131300;}#my-svg .noteLabel .nodeLabel,#my-svg .noteLabel .edgeLabel{color:black;}#my-svg .edgeLabel .label rect{fill:#ECECFF;}#my-svg .label text{fill:#131300;}#my-svg .labelBkg{background:#ECECFF;}#my-svg .edgeLabel .label span{background:#ECECFF;}#my-svg .classTitle{font-weight:bolder;}#my-svg .node rect,#my-svg .node circle,#my-svg .node ellipse,#my-svg .node polygon,#my-svg .node path{fill:#ECECFF;stroke:#9370DB;stroke-width:1;}#my-svg .divider{stroke:#9370DB;stroke-width:1;}#my-svg g.clickable{cursor:pointer;}#my-svg g.classGroup rect{fill:#ECECFF;stroke:#9370DB;}#my-svg g.classGroup line{stroke:#9370DB;stroke-width:1;}#my-svg .classLabel .box{stroke:none;stroke-width:0;fill:#ECECFF;opacity:0.5;}#my-svg .classLabel .label{fill:#9370DB;font-size:10px;}#my-svg .relation{stroke:#333333;stroke-width:1;fill:none;}#my-svg .dashed-line{stroke-dasharray:3;}#my-svg .dotted-line{stroke-dasharray:1 2;}#my-svg [id$="-compositionStart"],#my-svg .composition{fill:#333333!important;stroke:#333333!important;stroke-width:1;}#my-svg [id$="-compositionEnd"],#my-svg .composition{fill:#333333!important;stroke:#333333!important;stroke-width:1;}#my-svg [id$="-dependencyStart"],#my-svg .dependency{fill:#333333!important;stroke:#333333!important;stroke-width:1;}#my-svg [id$="-dependencyEnd"],#my-svg .dependency{fill:#333333!important;stroke:#333333!important;stroke-width:1;}#my-svg [id$="-extensionStart"],#my-svg .extension{fill:transparent!important;stroke:#333333!important;stroke-width:1;}#my-svg [id$="-extensionEnd"],#my-svg .extension{fill:transparent!important;stroke:#333333!important;stroke-width:1;}#my-svg [id$="-aggregationStart"],#my-svg .aggregation{fill:transparent!important;stroke:#333333!important;stroke-width:1;}#my-svg [id$="-aggregationEnd"],#my-svg .aggregation{fill:transparent!important;stroke:#333333!important;stroke-width:1;}#my-svg [id$="-lollipopStart"],#my-svg .lollipop{fill:#ECECFF!important;stroke:#333333!important;stroke-width:1;}#my-svg [id$="-lollipopEnd"],#my-svg .lollipop{fill:#ECECFF!important;stroke:#333333!important;stroke-width:1;}#my-svg .edgeTerminals{font-size:11px;line-height:initial;}#my-svg .classTitleText{text-anchor:middle;font-size:18px;fill:#333;}#my-svg .edgeLabel[data-look="neo"]{background-color:rgba(232,232,232, 0.8);text-align:center;}#my-svg .edgeLabel[data-look="neo"] p{background-color:rgba(232,232,232, 0.8);}#my-svg .edgeLabel[data-look="neo"] rect{opacity:0.5;background-color:rgba(232,232,232, 0.8);fill:rgba(232,232,232, 0.8);}#my-svg .label-icon{display:inline-block;height:1em;overflow:visible;vertical-align:-0.125em;}#my-svg .node .label-icon path{fill:currentColor;stroke:revert;stroke-width:revert;}#my-svg .node .neo-node{stroke:#9370DB;}#my-svg [data-look="neo"].node rect,#my-svg [data-look="neo"].cluster rect,#my-svg [data-look="neo"].node polygon{stroke:#9370DB;filter:drop-shadow(1px 2px 2px rgba(185, 185, 185, 1));}#my-svg [data-look="neo"].swimlane.cluster rect{filter:none;}#my-svg [data-look="neo"].node path{stroke:#9370DB;stroke-width:1px;}#my-svg [data-look="neo"].node .outer-path{filter:drop-shadow(1px 2px 2px rgba(185, 185, 185, 1));}#my-svg [data-look="neo"].node .neo-line path{stroke:#9370DB;filter:none;}#my-svg [data-look="neo"].node circle{stroke:#9370DB;filter:drop-shadow(1px 2px 2px rgba(185, 185, 185, 1));}#my-svg [data-look="neo"].node circle .state-start{fill:#000000;}#my-svg [data-look="neo"].icon-shape .icon{fill:#9370DB;filter:drop-shadow(1px 2px 2px rgba(185, 185, 185, 1));}#my-svg [data-look="neo"].icon-shape .icon-neo path{stroke:#9370DB;filter:drop-shadow(1px 2px 2px rgba(185, 185, 185, 1));}#my-svg :root{--mermaid-font-family:"trebuchet ms",verdana,arial,sans-serif;}</style><g><defs><marker id="my-svg_class-aggregationStart" class="marker aggregation class" refX="18" refY="7" markerWidth="190" markerHeight="240" orient="auto"><path d="M 18,7 L9,13 L1,7 L9,1 Z"/></marker></defs><defs><marker id="my-svg_class-aggregationEnd" class="marker aggregation class" refX="1" refY="7" markerWidth="20" markerHeight="28" orient="auto"><path d="M 18,7 L9,13 L1,7 L9,1 Z"/></marker></defs><defs><marker id="my-svg_class-aggregationStart-margin" class="marker aggregation class" refX="15" refY="7" markerWidth="190" markerHeight="240" orient="auto" markerUnits="userSpaceOnUse"><path d="M 18,7 L9,13 L1,7 L9,1 Z" style="stroke-width: 2;"/></marker></defs><defs><marker id="my-svg_class-aggregationEnd-margin" class="marker aggregation class" refX="1" refY="7" markerWidth="20" markerHeight="28" orient="auto" markerUnits="userSpaceOnUse"><path d="M 18,7 L9,13 L1,7 L9,1 Z" style="stroke-width: 2;"/></marker></defs><defs><marker id="my-svg_class-extensionStart" class="marker extension class" refX="18" refY="7" markerWidth="20" markerHeight="28" orient="auto" markerUnits="userSpaceOnUse"><path d="M 1,7 L18,13 V 1 Z"/></marker></defs><defs><marker id="my-svg_class-extensionEnd" class="marker extension class" refX="1" refY="7" markerWidth="20" markerHeight="28" orient="auto"><path d="M 1,1 V 13 L18,7 Z"/></marker></defs><marker id="my-svg_class-extensionStart-margin" class="marker extension class" refX="18" refY="7" markerWidth="20" markerHeight="28" orient="auto" markerUnits="userSpaceOnUse" viewBox="0 0 20 14"><polygon points="10,7 18,13 18,1" style="stroke-width: 2; stroke-dasharray: 0;"/></marker><defs><marker id="my-svg_class-extensionEnd-margin" class="marker extension class" refX="9" refY="7" markerWidth="20" markerHeight="28" orient="auto" markerUnits="userSpaceOnUse" viewBox="0 0 20 14"><polygon points="10,1 10,13 18,7" style="stroke-width: 2; stroke-dasharray: 0;"/></marker></defs><defs><marker id="my-svg_class-compositionStart" class="marker composition class" refX="18" refY="7" markerWidth="190" markerHeight="240" orient="auto"><path d="M 18,7 L9,13 L1,7 L9,1 Z"/></marker></defs><defs><marker id="my-svg_class-compositionEnd" class="marker composition class" refX="1" refY="7" markerWidth="20" markerHeight="28" orient="auto"><path d="M 18,7 L9,13 L1,7 L9,1 Z"/></marker></defs><defs><marker id="my-svg_class-compositionStart-margin" class="marker composition class" refX="15" refY="7" markerWidth="190" markerHeight="240" orient="auto" markerUnits="userSpaceOnUse"><path viewBox="0 0 15 15" d="M 18,7 L9,13 L1,7 L9,1 Z" style="stroke-width: 0;"/></marker></defs><defs><marker id="my-svg_class-compositionEnd-margin" class="marker composition class" refX="3.5" refY="7" markerWidth="20" markerHeight="28" orient="auto" markerUnits="userSpaceOnUse"><path d="M 18,7 L9,13 L1,7 L9,1 Z" style="stroke-width: 0;"/></marker></defs><defs><marker id="my-svg_class-dependencyStart" class="marker dependency class" refX="6" refY="7" markerWidth="190" markerHeight="240" orient="auto"><path d="M 5,7 L9,13 L1,7 L9,1 Z"/></marker></defs><defs><marker id="my-svg_class-dependencyEnd" class="marker dependency class" refX="13" refY="7" markerWidth="20" markerHeight="28" orient="auto"><path d="M 18,7 L9,13 L14,7 L9,1 Z"/></marker></defs><defs><marker id="my-svg_class-dependencyStart-margin" class="marker dependency class" refX="4" refY="7" markerWidth="190" markerHeight="240" orient="auto" markerUnits="userSpaceOnUse"><path d="M 5,7 L9,13 L1,7 L9,1 Z" style="stroke-width: 0;"/></marker></defs><defs><marker id="my-svg_class-dependencyEnd-margin" class="marker dependency class" refX="16" refY="7" markerWidth="20" markerHeight="28" orient="auto" markerUnits="userSpaceOnUse"><path d="M 18,7 L9,13 L14,7 L9,1 Z" style="stroke-width: 0;"/></marker></defs><defs><marker id="my-svg_class-lollipopStart" class="marker lollipop class" refX="13" refY="7" markerWidth="190" markerHeight="240" orient="auto"><circle fill="transparent" cx="7" cy="7" r="6"/></marker></defs><defs><marker id="my-svg_class-lollipopEnd" class="marker lollipop class" refX="1" refY="7" markerWidth="190" markerHeight="240" orient="auto"><circle fill="transparent" cx="7" cy="7" r="6"/></marker></defs><defs><marker id="my-svg_class-lollipopStart-margin" class="marker lollipop class" refX="13" refY="7" markerWidth="190" markerHeight="240" orient="auto" markerUnits="userSpaceOnUse"><circle fill="transparent" cx="7" cy="7" r="6" stroke-width="2"/></marker></defs><defs><marker id="my-svg_class-lollipopEnd-margin" class="marker lollipop class" refX="1" refY="7" markerWidth="190" markerHeight="240" orient="auto" markerUnits="userSpaceOnUse"><circle fill="transparent" cx="7" cy="7" r="6" stroke-width="2"/></marker></defs><g class="root"><g class="clusters"/><g class="edgePaths"><path d="M186.309,164L186.309,172.167C186.309,180.333,186.309,196.667,188.681,211C191.053,225.333,195.798,237.667,198.171,243.833L200.543,250" id="my-svg-id_Condition_Patient_1" class="edge-thickness-normal edge-pattern-solid relation" style=";;;" data-edge="true" data-et="edge" data-id="id_Condition_Patient_1" data-points="W3sieCI6MTg2LjMwODU5Mzc1LCJ5IjoxNjR9LHsieCI6MTg2LjMwODU5Mzc1LCJ5IjoyMTN9LHsieCI6MjAwLjU0MzI5MTgyMzMwODI3LCJ5IjoyNTB9XQ==" data-look="classic"/><path d="M148.668,433.394L140.944,440.995C133.22,448.596,117.772,463.798,110.048,477.566C102.324,491.333,102.324,503.667,102.324,509.833L102.324,516" id="my-svg-id_Patient_Consultant_2" class="edge-thickness-normal edge-pattern-solid relation" style=";;;" data-edge="true" data-et="edge" data-id="id_Patient_Consultant_2" data-points="W3sieCI6MTQ4LjY2Nzk2ODc1LCJ5Ijo0MzMuMzk0Mjg4ODUyMjc5fSx7IngiOjEwMi4zMjQyMTg3NSwieSI6NDc5fSx7IngiOjEwMi4zMjQyMTg3NSwieSI6NTE2fV0=" data-look="classic"/><path d="M326.285,433.394L334.009,440.995C341.733,448.596,357.181,463.798,364.905,477.566C372.629,491.333,372.629,503.667,372.629,509.833L372.629,516" id="my-svg-id_Patient_GeneralPractitioner_3" class="edge-thickness-normal edge-pattern-solid relation" style=";;;" data-edge="true" data-et="edge" data-id="id_Patient_GeneralPractitioner_3" data-points="W3sieCI6MzI2LjI4NTE1NjI1LCJ5Ijo0MzMuMzk0Mjg4ODUyMjc5fSx7IngiOjM3Mi42Mjg5MDYyNSwieSI6NDc5fSx7IngiOjM3Mi42Mjg5MDYyNSwieSI6NTE2fV0=" data-look="classic"/><path d="M378.336,158.586L366.726,167.655C355.116,176.724,331.896,194.862,316.985,210.098C302.073,225.333,295.471,237.667,292.17,243.833L288.868,250" id="my-svg-id_Consultation_Patient_4" class="edge-thickness-normal edge-pattern-solid relation" style=";;;" data-edge="true" data-et="edge" data-id="id_Consultation_Patient_4" data-points="W3sieCI6Mzc4LjMzNTkzNzUsInkiOjE1OC41ODU4NTI5ODE5Njk0OH0seyJ4IjozMDguNjc1NzgxMjUsInkiOjIxM30seyJ4IjoyODguODY4NDc5NzkzMjMzMDYsInkiOjI1MH1d" data-look="classic"/><path d="M548.82,133.336L576.201,146.613C603.581,159.891,658.341,186.445,685.721,209.889C713.102,233.333,713.102,253.667,713.102,263.833L713.102,274" id="my-svg-id_Consultation_HospitalDoctor_5" class="edge-thickness-normal edge-pattern-solid relation" style=";;;" data-edge="true" data-et="edge" data-id="id_Consultation_HospitalDoctor_5" data-points="W3sieCI6NTQ4LjgyMDMxMjUsInkiOjEzMy4zMzYwMTU1Mjk2MDMzMn0seyJ4Ijo3MTMuMTAxNTYyNSwieSI6MjEzfSx7IngiOjcxMy4xMDE1NjI1LCJ5IjoyNzR9XQ==" data-look="classic"/><path d="M463.578,176L463.578,182.167C463.578,188.333,463.578,200.667,463.578,217C463.578,233.333,463.578,253.667,463.578,263.833L463.578,274" id="my-svg-id_Consultation_Medication_6" class="edge-thickness-normal edge-pattern-solid relation" style=";;;" data-edge="true" data-et="edge" data-id="id_Consultation_Medication_6" data-points="W3sieCI6NDYzLjU3ODEyNSwieSI6MTc2fSx7IngiOjQ2My41NzgxMjUsInkiOjIxM30seyJ4Ijo0NjMuNTc4MTI1LCJ5IjoyNzR9XQ==" data-look="classic"/></g><g class="edgeLabels"><g class="edgeLabel" transform="translate(186.30859375, 213)"><g class="label" data-id="id_Condition_Patient_1" transform="translate(-54.84375, -12)"><foreignObject width="109.6875" height="420px"><div xmlns="http://www.w3.org/1999/xhtml" class="labelBkg" style="display: table-cell; white-space: nowrap; line-height: 1.5; max-width: 200px; text-align: center;"><span class="edgeLabel"><p>Diagnosed-with</p></span></div></foreignObject></g></g><g class="edgeLabel" transform="translate(102.32421875, 479)"><g class="label" data-id="id_Patient_Consultant_2" transform="translate(-41.4609375, -12)"><foreignObject width="82.921875" height="24"><div xmlns="http://www.w3.org/1999/xhtml" class="labelBkg" style="display: table-cell; white-space: nowrap; line-height: 1.5; max-width: 200px; text-align: center;"><span class="edgeLabel"><p>Referred-to</p></span></div></foreignObject></g></g><g class="edgeLabel" transform="translate(372.62890625, 479)"><g class="label" data-id="id_Patient_GeneralPractitioner_3" transform="translate(-42.3984375, -12)"><foreignObject width="84.796875" height="24"><div xmlns="http://www.w3.org/1999/xhtml" class="labelBkg" style="display: table-cell; white-space: nowrap; line-height: 1.5; max-width: 200px; text-align: center;"><span class="edgeLabel"><p>Referred-by</p></span></div></foreignObject></g></g><g class="edgeLabel" transform="translate(326.96898, 198.7105)"><g class="label" data-id="id_Consultation_Patient_4" transform="translate(-27.4921875, -12)"><foreignObject width="54.984375" height="24"><div xmlns="http://www.w3.org/1999/xhtml" class="labelBkg" style="display: table-cell; white-space: nowrap; line-height: 1.5; max-width: 200px; text-align: center;"><span class="edgeLabel"><p>Attends</p></span></div></foreignObject></g></g><g class="edgeLabel" transform="translate(713.1015625, 213)"><g class="label" data-id="id_Consultation_HospitalDoctor_5" transform="translate(-16.40625, -12)"><foreignObject width="32.8125" height="24"><div xmlns="http://www.w3.org/1999/xhtml" class="labelBkg" style="display: table-cell; white-space: nowrap; line-height: 1.5; max-width: 200px; text-align: center;"><span class="edgeLabel"><p>Runs</p></span></div></foreignObject></g></g><g class="edgeLabel" transform="translate(463.578125, 213)"><g class="label" data-id="id_Consultation_Medication_6" transform="translate(-36.2109375, -12)"><foreignObject width="72.421875" height="24"><div xmlns="http://www.w3.org/1999/xhtml" class="labelBkg" style="display: table-cell; white-space: nowrap; line-height: 1.5; max-width: 200px; text-align: center;"><span class="edgeLabel"><p>Prescribes</p></span></div></foreignObject></g></g><g class="edgeTerminals" transform="translate(171.30859187500008, 181.49999839285715)"><g class="inner" transform="translate(-8.9453125, -8.25)"><foreignObject width="17.890625" height="16.5" style="width: 36px; height: 12px;"><div xmlns="http://www.w3.org/1999/xhtml" style="display: table-cell; white-space: nowrap; line-height: 1.5;"><span class="edgeLabel"><p>1..*</p></span></div></foreignObject></g></g><g class="edgeTerminals" transform="translate(125.6735502179518, 434.97754843802613)"><g class="inner" transform="translate(-8.9453125, -8.25)"><foreignObject width="17.890625" height="16.5" style="width: 36px; height: 12px;"><div xmlns="http://www.w3.org/1999/xhtml" style="display: table-cell; white-space: nowrap; line-height: 1.5;"><span class="edgeLabel"><p>1..*</p></span></div></foreignObject></g></g><g class="edgeTerminals" transform="translate(328.23732003924226, 456.3603314684827)"><g class="inner" transform="translate(-8.9453125, -8.25)"><foreignObject width="17.890625" height="16.5" style="width: 36px; height: 12px;"><div xmlns="http://www.w3.org/1999/xhtml" style="display: table-cell; white-space: nowrap; line-height: 1.5;"><span class="edgeLabel"><p>1..*</p></span></div></foreignObject></g></g><g class="edgeTerminals" transform="translate(355.3109257651652, 157.5376443343132)"><g class="inner" transform="translate(-8.9453125, -8.25)"><foreignObject width="17.890625" height="16.5" style="width: 36px; height: 12px;"><div xmlns="http://www.w3.org/1999/xhtml" style="display: table-cell; white-space: nowrap; line-height: 1.5;"><span class="edgeLabel"><p>1..*</p></span></div></foreignObject></g></g><g class="edgeTerminals" transform="translate(558.0216608339605, 154.46857797496617)"><g class="inner" transform="translate(-9.8125, -8.25)"><foreignObject width="19.625" height="16.5" style="width: 36px; height: 12px;"><div xmlns="http://www.w3.org/1999/xhtml" style="display: table-cell; white-space: nowrap; line-height: 1.5;"><span class="edgeLabel"><p>1..4</p></span></div></foreignObject></g></g><g class="edgeTerminals" transform="translate(448.57812750000016, 193.50000214285714)"><g class="inner" transform="translate(-8.9453125, -8.25)"><foreignObject width="17.890625" height="16.5" style="width: 36px; height: 12px;"><div xmlns="http://www.w3.org/1999/xhtml" style="display: table-cell; white-space: nowrap; line-height: 1.5;"><span class="edgeLabel"><p>1..*</p></span></div></foreignObject></g></g><g class="edgeTerminals" transform="translate(203.25933130284596, 223.28105236470955)"><g class="inner" transform="translate(-8.9453125, -8.25)"/><foreignObject width="17.890625" height="16.5" style="width: 36px; height: 12px;"><div xmlns="http://www.w3.org/1999/xhtml" style="display: table-cell; white-space: nowrap; line-height: 1.5;"><span class="edgeLabel"><p>1..*</p></span></div></foreignObject></g><g class="edgeTerminals" transform="translate(112.32421937499998, 493.50000053571426)"><g class="inner" transform="translate(-2.890625, -8.25)"/><foreignObject width="5.78125" height="16.5" style="width: 9px; height: 12px;"><div xmlns="http://www.w3.org/1999/xhtml" style="display: table-cell; white-space: nowrap; line-height: 1.5;"><span class="edgeLabel"><p>1</p></span></div></foreignObject></g><g class="edgeTerminals" transform="translate(382.6289081249999, 493.50000160714285)"><g class="inner" transform="translate(-2.890625, -8.25)"/><foreignObject width="5.78125" height="16.5" style="width: 9px; height: 12px;"><div xmlns="http://www.w3.org/1999/xhtml" style="display: table-cell; white-space: nowrap; line-height: 1.5;"><span class="edgeLabel"><p>1</p></span></div></foreignObject></g><g class="edgeTerminals" transform="translate(305.352076206583, 236.65104650416757)"><g class="inner" transform="translate(-8.9453125, -8.25)"/><foreignObject width="17.890625" height="16.5" style="width: 36px; height: 12px;"><div xmlns="http://www.w3.org/1999/xhtml" style="display: table-cell; white-space: nowrap; line-height: 1.5;"><span class="edgeLabel"><p>1..*</p></span></div></foreignObject></g><g class="edgeTerminals" transform="translate(723.10156125, 251.49999892857142)"><g class="inner" transform="translate(-8.9453125, -8.25)"/><foreignObject width="17.890625" height="16.5" style="width: 36px; height: 12px;"><div xmlns="http://www.w3.org/1999/xhtml" style="display: table-cell; white-space: nowrap; line-height: 1.5;"><span class="edgeLabel"><p>1..*</p></span></div></foreignObject></g><g class="edgeTerminals" transform="translate(473.5781274999998, 251.5000021428571)"><g class="inner" transform="translate(-8.9453125, -8.25)"/><foreignObject width="17.890625" height="16.5" style="width: 36px; height: 12px;"><div xmlns="http://www.w3.org/1999/xhtml" style="display: table-cell; white-space: nowrap; line-height: 1.5;"><span class="edgeLabel"><p>1..*</p></span></div></foreignObject></g></g><g class="nodes"><g class="node default" id="my-svg-classId-Patient-0" data-look="classic" transform="translate(237.4765625, 346)"><g class="basic label-container outer-path"><path d="M-88.80859375 -96 L88.80859375 -96 L88.80859375 96 L-88.80859375 96" stroke="none" stroke-width="0" fill="#ECECFF" style=""/><path d="M-88.80859375 -96 C-37.802261494763435 -96, 13.20407076047313 -96, 88.80859375 -96 M-88.80859375 -96 C-27.98504975920285 -96, 32.8384942315943 -96, 88.80859375 -96 M88.80859375 -96 C88.80859375 -33.67867362657587, 88.80859375 28.642652746848256, 88.80859375 96 M88.80859375 -96 C88.80859375 -24.221250836461508, 88.80859375 47.557498327076985, 88.80859375 96 M88.80859375 96 C32.144091636882294 96, -24.520410476235412 96, -88.80859375 96 M88.80859375 96 C49.953703013936924 96, 11.098812277873847 96, -88.80859375 96 M-88.80859375 96 C-88.80859375 23.824138086381396, -88.80859375 -48.35172382723721, -88.80859375 -96 M-88.80859375 96 C-88.80859375 52.89604327403868, -88.80859375 9.792086548077364, -88.80859375 -96" stroke="#9370DB" stroke-width="1.3" fill="none" stroke-dasharray="0 0" style=""/></g><g class="annotation-group text" transform="translate(0, -72)"/><g class="label-group text" transform="translate(-26.6328125, -72)"><g class="label" style="font-weight: bolder" transform="translate(0,-12)"><foreignObject width="53.265625" height="24"><div xmlns="http://www.w3.org/1999/xhtml" style="display: table-cell; white-space: nowrap; line-height: 1.5; max-width: 94px; text-align: center;"><span class="nodeLabel markdown-node-label" style=""><p>Patient</p></span></div></foreignObject></g></g><g class="members-group text" transform="translate(-76.80859375, -24)"><g class="label" style="" transform="translate(0,-12)"><foreignObject width="126.984375" height="24"><div xmlns="http://www.w3.org/1999/xhtml" style="display: table-cell; white-space: nowrap; line-height: 1.5; max-width: 171px; text-align: center;"><span class="nodeLabel markdown-node-label" style=""><p>+patientID: String</p></span></div></foreignObject></g><g class="label" style="" transform="translate(0,12)"><foreignObject width="99.84375" height="24"><div xmlns="http://www.w3.org/1999/xhtml" style="display: table-cell; white-space: nowrap; line-height: 1.5; max-width: 146px; text-align: center;"><span class="nodeLabel markdown-node-label" style=""><p>+name: String</p></span></div></foreignObject></g><g class="label" style="" transform="translate(0,36)"><foreignObject width="114.8125" height="24"><div xmlns="http://www.w3.org/1999/xhtml" style="display: table-cell; white-space: nowrap; line-height: 1.5; max-width: 159px; text-align: center;"><span class="nodeLabel markdown-node-label" style=""><p>+address: String</p></span></div></foreignObject></g></g><g class="methods-group text" transform="translate(-76.80859375, 72)"><g class="label" style="" transform="translate(0,-12)"><foreignObject width="75.453125" height="24"><div xmlns="http://www.w3.org/1999/xhtml" style="display: table-cell; white-space: nowrap; line-height: 1.5; max-width: 122px; text-align: center;"><span class="nodeLabel markdown-node-label" style=""><p>+register()</p></span></div></foreignObject></g></g><g class="divider" style=""><path d="M-88.80859375 -48 C-31.261659985953266 -47.99967600582706, 26.28527377809347 -47.99935201165412, 88.80859375 -47.999 M-88.80859375 -48 C-38.74485269329363 -47.99971813684384, 11.31888836341274 -47.999436273687685, 88.80859375 -47.999" stroke="#9370DB" stroke-width="1.3" fill="none" stroke-dasharray="0 0" style=""/></g><g class="divider" style=""><path d="M-88.80859375 48 C-31.987383679732012 48.0003199082863, 24.833826390535975 48.000639816572594, 88.80859375 48.001 M-88.80859375 48 C-39.617824567996564 48.00027694824963, 9.572944614006872 48.000553896499255, 88.80859375 48.001" stroke="#9370DB" stroke-width="1.3" fill="none" stroke-dasharray="0 0" style=""/></g></g><g class="node default" id="my-svg-classId-Consultation-1" data-look="classic" transform="translate(463.578125, 92)"><g class="basic label-container outer-path"><path d="M-85.2421875 -84 L85.2421875 -84 L85.2421875 84 L-85.2421875 84" stroke="none" stroke-width="0" fill="#ECECFF" style=""/><path d="M-85.2421875 -84 C-17.53105396707562 -84, 50.18007956584876 -84, 85.2421875 -84 M-85.2421875 -84 C-30.2274154225898 -84, 24.7873566548204 -84, 85.2421875 -84 M85.2421875 -84 C85.2421875 -48.11769754626352, 85.2421875 -12.235395092527042, 85.2421875 84 M85.2421875 -84 C85.2421875 -22.306022121741506, 85.2421875 39.38795575651699, 85.2421875 84 M85.2421875 84 C50.74586449133614 84, 16.249541482672285 84, -85.2421875 84 M85.2421875 84 C18.82489747689958 84, -47.59239254620084 84, -85.2421875 84 M-85.2421875 84 C-85.2421875 43.20124893462759, -85.2421875 2.4024978692551855, -85.2421875 -84 M-85.2421875 84 C-85.2421875 35.75760024380627, -85.2421875 -12.484799512387454, -85.2421875 -84" stroke="#9370DB" stroke-width="1.3" fill="none" stroke-dasharray="0 0" style=""/></g><g class="annotation-group text" transform="translate(0, -60)"/><g class="label-group text" transform="translate(-46.921875, -60)"><g class="label" style="font-weight: bolder" transform="translate(0,-12)"><foreignObject width="93.84375" height="24"><div xmlns="http://www.w3.org/1999/xhtml" style="display: table-cell; white-space: nowrap; line-height: 1.5; max-width: 132px; text-align: center;"><span class="nodeLabel markdown-node-label" style=""><p>Consultation</p></span></div></foreignObject></g></g><g class="members-group text" transform="translate(-73.2421875, -12)"><g class="label" style="" transform="translate(0,-12)"><foreignObject width="84.765625" height="24"><div xmlns="http://www.w3.org/1999/xhtml" style="display: table-cell; white-space: nowrap; line-height: 1.5; max-width: 129px; text-align: center;"><span class="nodeLabel markdown-node-label" style=""><p>+date: Date</p></span></div></foreignObject></g><g class="label" style="" transform="translate(0,12)"><foreignObject width="99.5625" height="24"><div xmlns="http://www.w3.org/1999/xhtml" style="display: table-cell; white-space: nowrap; line-height: 1.5; max-width: 145px; text-align: center;"><span class="nodeLabel markdown-node-label" style=""><p>+notes: String</p></span></div></foreignObject></g></g><g class="methods-group text" transform="translate(-73.2421875, 60)"><g class="label" style="" transform="translate(0,-12)"><foreignObject width="83.109375" height="24"><div xmlns="http://www.w3.org/1999/xhtml" style="display: table-cell; white-space: nowrap; line-height: 1.5; max-width: 130px; text-align: center;"><span class="nodeLabel markdown-node-label" style=""><p>+schedule()</p></span></div></foreignObject></g></g><g class="divider" style=""><path d="M-85.2421875 -36 C-41.15546799243108 -35.99974140316667, 2.931251515137845 -35.99948280633334, 85.2421875 -35.999 M-85.2421875 -36 C-29.202921522460215 -35.99967129382985, 26.83634445507957 -35.99934258765969, 85.2421875 -35.999" stroke="#9370DB" stroke-width="1.3" fill="none" stroke-dasharray="0 0" style=""/></g><g class="divider" style=""><path d="M-85.2421875 36 C-50.35224066195779 36.000204651874036, -15.462293823915573 36.00040930374808, 85.2421875 36.001 M-85.2421875 36 C-50.698854657937005 36.00020261876106, -16.15552181587401 36.000405237522116, 85.2421875 36.001" stroke="#9370DB" stroke-width="1.3" fill="none" stroke-dasharray="0 0" style=""/></g></g><g class="node default" id="my-svg-classId-Condition-2" data-look="classic" transform="translate(186.30859375, 92)"><g class="basic label-container outer-path"><path d="M-88.7265625 -72 L88.7265625 -72 L88.7265625 72 L-88.7265625 72" stroke="none" stroke-width="0" fill="#ECECFF" style=""/><path d="M-88.7265625 -72 C-26.614557225400652 -72, 35.497448049198695 -72, 88.7265625 -72 M-88.7265625 -72 C-38.6301916482794 -72, 11.4661792034412 -72, 88.7265625 -72 M88.7265625 -72 C88.7265625 -39.39819539915871, 88.7265625 -6.796390798317418, 88.7265625 72 M88.7265625 -72 C88.7265625 -15.382551033361501, 88.7265625 41.234897933277, 88.7265625 72 M88.7265625 72 C29.320264674027776 72, -30.08603315194445 72, -88.7265625 72 M88.7265625 72 C32.29690172786553 72, -24.132759044268937 72, -88.7265625 72 M-88.7265625 72 C-88.7265625 25.488808761650134, -88.7265625 -21.022382476699732, -88.7265625 -72 M-88.7265625 72 C-88.7265625 18.443147509782705, -88.7265625 -35.11370498043459, -88.7265625 -72" stroke="#9370DB" stroke-width="1.3" fill="none" stroke-dasharray="0 0" style=""/></g><g class="annotation-group text" transform="translate(0, -48)"/><g class="label-group text" transform="translate(-35.984375, -48)"><g class="label" style="font-weight: bolder" transform="translate(0,-12)"><foreignObject width="71.96875" height="24"><div xmlns="http://www.w3.org/1999/xhtml" style="display: table-cell; white-space: nowrap; line-height: 1.5; max-width: 114px; text-align: center;"><span class="nodeLabel markdown-node-label" style=""><p>Condition</p></span></div></foreignObject></g></g><g class="members-group text" transform="translate(-76.7265625, 0)"><g class="label" style="" transform="translate(0,-12)"><foreignObject width="99.84375" height="24"><div xmlns="http://www.w3.org/1999/xhtml" style="display: table-cell; white-space: nowrap; line-height: 1.5; max-width: 146px; text-align: center;"><span class="nodeLabel markdown-node-label" style=""><p>+name: String</p></span></div></foreignObject></g><g class="label" style="" transform="translate(0,12)"><foreignObject width="117.46875" height="24"><div xmlns="http://www.w3.org/1999/xhtml" style="display: table-cell; white-space: nowrap; line-height: 1.5; max-width: 162px; text-align: center;"><span class="nodeLabel markdown-node-label" style=""><p>+severity: String</p></span></div></foreignObject></g></g><g class="methods-group text" transform="translate(-76.7265625, 72)"/><g class="divider" style=""><path d="M-88.7265625 -24 C-30.10395504663537 -23.99966964454724, 28.51865240672926 -23.999339289094475, 88.7265625 -23.999 M-88.7265625 -24 C-19.677088216676808 -23.99961088611833, 49.372386066646385 -23.99922177223666, 88.7265625 -23.999" stroke="#9370DB" stroke-width="1.3" fill="none" stroke-dasharray="0 0" style=""/></g><g class="divider" style=""><path d="M-88.7265625 48 C-47.926179796130285 48.00022992202985, -7.125797092260569 48.000459844059705, 88.7265625 48.001 M-88.7265625 48 C-35.27517591105018 48.000301214118316, 18.176210677899647 48.000602428236625, 88.7265625 48.001" stroke="#9370DB" stroke-width="1.3" fill="none" stroke-dasharray="0 0" style=""/></g></g><g class="node default" id="my-svg-classId-Medication-3" data-look="classic" transform="translate(463.578125, 346)"><g class="basic label-container outer-path"><path d="M-87.29296875 -72 L87.29296875 -72 L87.29296875 72 L-87.29296875 72" stroke="none" stroke-width="0" fill="#ECECFF" style=""/><path d="M-87.29296875 -72 C-19.813022523417388 -72, 47.666923703165224 -72, 87.29296875 -72 M-87.29296875 -72 C-36.17304170907776 -72, 14.946885331844484 -72, 87.29296875 -72 M87.29296875 -72 C87.29296875 -39.607230337223, 87.29296875 -7.214460674446002, 87.29296875 72 M87.29296875 -72 C87.29296875 -16.066056991169752, 87.29296875 39.867886017660496, 87.29296875 72 M87.29296875 72 C39.128651865029205 72, -9.03566501994159 72, -87.29296875 72 M87.29296875 72 C24.642798384753043 72, -38.007371980493915 72, -87.29296875 72 M-87.29296875 72 C-87.29296875 33.909171307099164, -87.29296875 -4.181657385801671, -87.29296875 -72 M-87.29296875 72 C-87.29296875 20.683814172135413, -87.29296875 -30.632371655729173, -87.29296875 -72" stroke="#9370DB" stroke-width="1.3" fill="none" stroke-dasharray="0 0" style=""/></g><g class="annotation-group text" transform="translate(0, -48)"/><g class="label-group text" transform="translate(-40.7578125, -48)"><g class="label" style="font-weight: bolder" transform="translate(0,-12)"><foreignObject width="81.515625" height="24"><div xmlns="http://www.w3.org/1999/xhtml" style="display: table-cell; white-space: nowrap; line-height: 1.5; max-width: 123px; text-align: center;"><span class="nodeLabel markdown-node-label" style=""><p>Medication</p></span></div></foreignObject></g></g><g class="members-group text" transform="translate(-75.29296875, 0)"><g class="label" style="" transform="translate(0,-12)"><foreignObject width="99.84375" height="24"><div xmlns="http://www.w3.org/1999/xhtml" style="display: table-cell; white-space: nowrap; line-height: 1.5; max-width: 146px; text-align: center;"><span class="nodeLabel markdown-node-label" style=""><p>+name: String</p></span></div></foreignObject></g><g class="label" style="" transform="translate(0,12)"><foreignObject width="109.828125" height="24"><div xmlns="http://www.w3.org/1999/xhtml" style="display: table-cell; white-space: nowrap; line-height: 1.5; max-width: 155px; text-align: center;"><span class="nodeLabel markdown-node-label" style=""><p>+dosage: String</p></span></div></foreignObject></g></g><g class="methods-group text" transform="translate(-75.29296875, 72)"/><g class="divider" style=""><path d="M-87.29296875 -24 C-28.202888695414465 -23.999661541582896, 30.88719135917107 -23.999323083165795, 87.29296875 -23.999 M-87.29296875 -24 C-50.37558056642933 -23.99978854317414, -13.458192382858655 -23.99957708634828, 87.29296875 -23.999" stroke="#9370DB" stroke-width="1.3" fill="none" stroke-dasharray="0 0" style=""/></g><g class="divider" style=""><path d="M-87.29296875 48 C-47.604341705696896 48.00022733003364, -7.9157146613937925 48.00045466006727, 87.29296875 48.001 M-87.29296875 48 C-43.82184059679435 48.00024899558794, -0.350712443588705 48.00049799117587, 87.29296875 48.001" stroke="#9370DB" stroke-width="1.3" fill="none" stroke-dasharray="0 0" style=""/></g></g><g class="node default" id="my-svg-classId-HospitalDoctor-4" data-look="classic" transform="translate(713.1015625, 346)"><g class="basic label-container outer-path"><path d="M-112.23046875 -72 L112.23046875 -72 L112.23046875 72 L-112.23046875 72" stroke="none" stroke-width="0" fill="#ECECFF" style=""/><path d="M-112.23046875 -72 C-41.505563975715916 -72, 29.21934079856817 -72, 112.23046875 -72 M-112.23046875 -72 C-36.74618723722132 -72, 38.73809427555736 -72, 112.23046875 -72 M112.23046875 -72 C112.23046875 -29.710054063081714, 112.23046875 12.579891873836573, 112.23046875 72 M112.23046875 -72 C112.23046875 -18.322123924626645, 112.23046875 35.35575215074671, 112.23046875 72 M112.23046875 72 C55.89950382312636 72, -0.4314611037472815 72, -112.23046875 72 M112.23046875 72 C61.51065391528838 72, 10.79083908057676 72, -112.23046875 72 M-112.23046875 72 C-112.23046875 33.9502798929375, -112.23046875 -4.099440214124996, -112.23046875 -72 M-112.23046875 72 C-112.23046875 30.955160109511468, -112.23046875 -10.089679780977065, -112.23046875 -72" stroke="#9370DB" stroke-width="1.3" fill="none" stroke-dasharray="0 0" style=""/></g><g class="annotation-group text" transform="translate(0, -48)"/><g class="label-group text" transform="translate(-55.1640625, -48)"><g class="label" style="font-weight: bolder" transform="translate(0,-12)"><foreignObject width="110.328125" height="24"><div xmlns="http://www.w3.org/1999/xhtml" style="display: table-cell; white-space: nowrap; line-height: 1.5; max-width: 149px; text-align: center;"><span class="nodeLabel markdown-node-label" style=""><p>HospitalDoctor</p></span></div></foreignObject></g></g><g class="members-group text" transform="translate(-100.23046875, 0)"><g class="label" style="" transform="translate(0,-12)"><foreignObject width="145.296875" height="24"><div xmlns="http://www.w3.org/1999/xhtml" style="display: table-cell; white-space: nowrap; line-height: 1.5; max-width: 183px; text-align: center;"><span class="nodeLabel markdown-node-label" style=""><p>+department: String</p></span></div></foreignObject></g></g><g class="methods-group text" transform="translate(-100.23046875, 48)"><g class="label" style="" transform="translate(0,-12)"><foreignObject width="133.671875" height="24"><div xmlns="http://www.w3.org/1999/xhtml" style="display: table-cell; white-space: nowrap; line-height: 1.5; max-width: 177px; text-align: center;"><span class="nodeLabel markdown-node-label" style=""><p>+runConsultation()</p></span></div></foreignObject></g></g><g class="divider" style=""><path d="M-112.23046875 -24 C-40.74363454689295 -23.999681517706378, 30.743199656214102 -23.99936303541276, 112.23046875 -23.999 M-112.23046875 -24 C-32.11614779284632 -23.999643081233422, 47.99817316430736 -23.999286162466845, 112.23046875 -23.999" stroke="#9370DB" stroke-width="1.3" fill="none" stroke-dasharray="0 0" style=""/></g><g class="divider" style=""><path d="M-112.23046875 24 C-47.382418329920455 24.000288905727395, 17.46563209015909 24.00057781145479, 112.23046875 24.001 M-112.23046875 24 C-60.643291784514176 24.000229826969182, -9.056114819028352 24.000459653938364, 112.23046875 24.001" stroke="#9370DB" stroke-width="1.3" fill="none" stroke-dasharray="0 0" style=""/></g></g><g class="node default" id="my-svg-classId-Consultant-5" data-look="classic" transform="translate(102.32421875, 588)"><g class="basic label-container outer-path"><path d="M-94.32421875 -72 L94.32421875 -72 L94.32421875 72 L-94.32421875 72" stroke="none" stroke-width="0" fill="#ECECFF" style=""/><path d="M-94.32421875 -72 C-30.3216082787865 -72, 33.681002192427 -72, 94.32421875 -72 M-94.32421875 -72 C-45.176245598375964 -72, 3.9717275532480727 -72, 94.32421875 -72 M94.32421875 -72 C94.32421875 -28.592423832034754, 94.32421875 14.815152335930492, 94.32421875 72 M94.32421875 -72 C94.32421875 -32.41581133007928, 94.32421875 7.168377339841442, 94.32421875 72 M94.32421875 72 C20.782431094645162 72, -52.759356560709676 72, -94.32421875 72 M94.32421875 72 C20.705483870978924 72, -52.91325100804215 72, -94.32421875 72 M-94.32421875 72 C-94.32421875 39.8379034343204, -94.32421875 7.675806868640805, -94.32421875 -72 M-94.32421875 72 C-94.32421875 28.305807600589006, -94.32421875 -15.388384798821988, -94.32421875 -72" stroke="#9370DB" stroke-width="1.3" fill="none" stroke-dasharray="0 0" style=""/></g><g class="annotation-group text" transform="translate(0, -48)"/><g class="label-group text" transform="translate(-40.0078125, -48)"><g class="label" style="font-weight: bolder" transform="translate(0,-12)"><foreignObject width="80.015625" height="24"><div xmlns="http://www.w3.org/1999/xhtml" style="display: table-cell; white-space: nowrap; line-height: 1.5; max-width: 119px; text-align: center;"><span class="nodeLabel markdown-node-label" style=""><p>Consultant</p></span></div></foreignObject></g></g><g class="members-group text" transform="translate(-82.32421875, 0)"><g class="label" style="" transform="translate(0,-12)"><foreignObject width="124.640625" height="24"><div xmlns="http://www.w3.org/1999/xhtml" style="display: table-cell; white-space: nowrap; line-height: 1.5; max-width: 168px; text-align: center;"><span class="nodeLabel markdown-node-label" style=""><p>+specialty: String</p></span></div></foreignObject></g></g><g class="methods-group text" transform="translate(-82.32421875, 48)"><g class="label" style="" transform="translate(0,-12)"><foreignObject width="71.828125" height="24"><div xmlns="http://www.w3.org/1999/xhtml" style="display: table-cell; white-space: nowrap; line-height: 1.5; max-width: 121px; text-align: center;"><span class="nodeLabel markdown-node-label" style=""><p>+referTo()</p></span></div></foreignObject></g></g><g class="divider" style=""><path d="M-94.32421875 -24 C-36.24630990503296 -23.999692136814836, 21.831598939934082 -23.999384273629673, 94.32421875 -23.999 M-94.32421875 -24 C-43.737560026495075 -23.999731846924394, 6.84909869700985 -23.999463693848792, 94.32421875 -23.999" stroke="#9370DB" stroke-width="1.3" fill="none" stroke-dasharray="0 0" style=""/></g><g class="divider" style=""><path d="M-94.32421875 24 C-24.485711861163054 24.00037020453397, 45.35279502767389 24.00074040906794, 94.32421875 24.001 M-94.32421875 24 C-39.97443615598052 24.00028810088922, 14.37534643803896 24.000576201778443, 94.32421875 24.001" stroke="#9370DB" stroke-width="1.3" fill="none" stroke-dasharray="0 0" style=""/></g></g><g class="node default" id="my-svg-classId-GeneralPractitioner-6" data-look="classic" transform="translate(372.62890625, 588)"><g class="basic label-container outer-path"><path d="M-125.98046875 -72 L125.98046875 -72 L125.98046875 72 L-125.98046875 72" stroke="none" stroke-width="0" fill="#ECECFF" style=""/><path d="M-125.98046875 -72 C-70.44246044717926 -72, -14.90445214435853 -72, 125.98046875 -72 M-125.98046875 -72 C-54.04758587236488 -72, 17.885297005270246 -72, 125.98046875 -72 M125.98046875 -72 C125.98046875 -14.692465388509127, 125.98046875 42.615069222981745, 125.98046875 72 M125.98046875 -72 C125.98046875 -33.93265683583699, 125.98046875 4.134686328326026, 125.98046875 72 M125.98046875 72 C48.97286283495038 72, -28.034743080099247 72, -125.98046875 72 M125.98046875 72 C48.834491105407125 72, -28.31148653918575 72, -125.98046875 72 M-125.98046875 72 C-125.98046875 37.703021654252574, -125.98046875 3.406043308505147, -125.98046875 -72 M-125.98046875 72 C-125.98046875 26.893885957228868, -125.98046875 -18.212228085542264, -125.98046875 -72" stroke="#9370DB" stroke-width="1.3" fill="none" stroke-dasharray="0 0" style=""/></g><g class="annotation-group text" transform="translate(0, -48)"/><g class="label-group text" transform="translate(-73.6796875, -48)"><g class="label" style="font-weight: bolder" transform="translate(0,-12)"><foreignObject width="147.359375" height="24"><div xmlns="http://www.w3.org/1999/xhtml" style="display: table-cell; white-space: nowrap; line-height: 1.5; max-width: 175px; text-align: center;"><span class="nodeLabel markdown-node-label" style=""><p>GeneralPractitioner</p></span></div></foreignObject></g></g><g class="members-group text" transform="translate(-113.98046875, 0)"><g class="label" style="" transform="translate(0,-12)"><foreignObject width="154.28125" height="24"><div xmlns="http://www.w3.org/1999/xhtml" style="display: table-cell; white-space: nowrap; line-height: 1.5; max-width: 199px; text-align: center;"><span class="nodeLabel markdown-node-label" style=""><p>+clinicAddress: String</p></span></div></foreignObject></g></g><g class="methods-group text" transform="translate(-113.98046875, 48)"><g class="label" style="" transform="translate(0,-12)"><foreignObject width="72.890625" height="24"><div xmlns="http://www.w3.org/1999/xhtml" style="display: table-cell; white-space: nowrap; line-height: 1.5; max-width: 123px; text-align: center;"><span class="nodeLabel markdown-node-label" style=""><p>+referBy()</p></span></div></foreignObject></g></g><g class="divider" style=""><path d="M-125.98046875 -24 C-30.373113256835197 -23.999620546913178, 65.2342422363296 -23.999241093826353, 125.98046875 -23.999 M-125.98046875 -24 C-39.43124960042904 -23.99965649747136, 47.11796954914192 -23.99931299494272, 125.98046875 -23.999" stroke="#9370DB" stroke-width="1.3" fill="none" stroke-dasharray="0 0" style=""/></g><g class="divider" style=""><path d="M-125.98046875 24 C-43.57562892375603 24.000327054029263, 38.829210902487944 24.000654108058527, 125.98046875 24.001 M-125.98046875 24 C-51.58942527172695 24.000295248319905, 22.801618206546095 24.00059049663981, 125.98046875 24.001" stroke="#9370DB" stroke-width="1.3" fill="none" stroke-dasharray="0 0" style=""/></g></g></g></g></g><defs><filter id="my-svg-drop-shadow" height="130%" width="130%"><feDropShadow dx="4" dy="4" stdDeviation="0" flood-opacity="0.06" flood-color="#000000"/></filter></defs><defs><filter id="my-svg-drop-shadow-small" height="150%" width="150%"><feDropShadow dx="2" dy="2" stdDeviation="0" flood-opacity="0.06" flood-color="#000000"/></filter></defs></svg>