<svg xmlns="http://www.w3.org/2000/svg" viewBox="0 0 24 24" width="120" height="120">
  <!-- Clean modern flat chat/discussion icon in theme colors -->
  <!-- Left/Back speech bubble in dark blue -->
  <path d="M12 3c-4.97 0-9 3.58-9 8 0 1.94.78 3.72 2.1 5.08L4 20l4.22-1.34C9.4 18.88 10.68 19 12 19c4.97 0 9-3.58 9-8s-4.03-8-9-8z" fill="#0b3c5d" opacity="0.85"/>
  <!-- Right/Front speech bubble in light blue -->
  <path d="M16 8c-4.42 0-8 3.13-8 7 0 1.7.69 3.25 1.87 4.44L9 23l3.75-1.17c1.05.4 2.24.58 3.25.58 4.42 0 8-3.13 8-7s-3.58-7-8-7z" fill="#328cc1"/>
  <!-- Three dots in the front bubble -->
  <circle cx="13.5" cy="15" r="1" fill="#ffffff"/>
  <circle cx="16" cy="15" r="1" fill="#ffffff"/>
  <circle cx="18.5" cy="15" r="1" fill="#ffffff"/>
</svg>
